<svg width="1417" height="291" xmlns="http://www.w3.org/2000/svg" xmlns:xlink="http://www.w3.org/1999/xlink" xml:space="preserve" overflow="hidden"><g transform="translate(-277 -260)"><path d="M279.5 262.5 443.892 262.5 443.892 333.375 485.25 333.375 485.25 309.75 532.5 357 485.25 404.25 485.25 380.625 443.892 380.625 443.892 451.5 279.5 451.5Z" stroke="#41719C" stroke-width="4.58333" stroke-miterlimit="8" fill="#C5E0B4" fill-rule="evenodd"/><rect x="283.5" y="356.5" width="105" height="87" stroke="#41719C" stroke-width="4.58333" stroke-miterlimit="8" fill="#5B9BD5"/><path d="M556.5 262.5 720.892 262.5 720.892 333.375 762.25 333.375 762.25 309.75 809.5 357 762.25 404.25 762.25 380.625 720.892 380.625 720.892 451.5 556.5 451.5Z" stroke="#41719C" stroke-width="4.58333" stroke-miterlimit="8" fill="#C5E0B4" fill-rule="evenodd"/><rect x="560.5" y="356.5" width="106" height="87" stroke="#41719C" stroke-width="4.58333" stroke-miterlimit="8" fill="#5B9BD5"/><path d="M838.5 262.5 1002.89 262.5 1002.89 333.375 1044.25 333.375 1044.25 309.75 1091.5 357 1044.25 404.25 1044.25 380.625 1002.89 380.625 1002.89 451.5 838.5 451.5Z" stroke="#41719C" stroke-width="4.58333" stroke-miterlimit="8" fill="#C5E0B4" fill-rule="evenodd"/><rect x="842.5" y="356.5" width="105" height="87" stroke="#41719C" stroke-width="4.58333" stroke-miterlimit="8" fill="#5B9BD5"/><path d="M1436.5 262.5 1600.89 262.5 1600.89 333.375 1642.25 333.375 1642.25 309.75 1689.5 357 1642.25 404.25 1642.25 380.625 1600.89 380.625 1600.89 451.5 1436.5 451.5Z" stroke="#41719C" stroke-width="4.58333" stroke-miterlimit="8" fill="#C5E0B4" fill-rule="evenodd"/><rect x="1440.5" y="356.5" width="106" height="87" stroke="#41719C" stroke-width="4.58333" stroke-miterlimit="8" fill="#5B9BD5"/><text font-family="Calibri,Calibri_MSFontService,sans-serif" font-weight="400" font-size="128" transform="matrix(1 0 0 1 1183.85 439)">…</text></g></svg>