<svg width="1420" height="292" xmlns="http://www.w3.org/2000/svg" xmlns:xlink="http://www.w3.org/1999/xlink" xml:space="preserve" overflow="hidden"><g transform="translate(-247 -859)"><path d="M251.5 862.5 415.892 862.5 415.892 933 457.5 933 457.5 909.5 504.5 956.5 457.5 1003.5 457.5 980 415.892 980 415.892 1050.5 251.5 1050.5Z" stroke="#41719C" stroke-width="4.58333" stroke-miterlimit="8" fill="#C5E0B4" fill-rule="evenodd"/><rect x="255.5" y="956.5" width="106" height="85.9999" stroke="#41719C" stroke-width="4.58333" stroke-miterlimit="8" fill="#5B9BD5"/><path d="M529.5 862.5 693.892 862.5 693.892 933 735.5 933 735.5 909.5 782.5 956.5 735.5 1003.5 735.5 980 693.892 980 693.892 1050.5 529.5 1050.5Z" stroke="#41719C" stroke-width="4.58333" stroke-miterlimit="8" fill="#C5E0B4" fill-rule="evenodd"/><rect x="533.5" y="956.5" width="106" height="85.9999" stroke="#41719C" stroke-width="4.58333" stroke-miterlimit="8" fill="#5B9BD5"/><path d="M810.5 861.5 974.892 861.5 974.892 932.375 1016.25 932.375 1016.25 908.75 1063.5 956 1016.25 1003.25 1016.25 979.625 974.892 979.625 974.892 1050.5 810.5 1050.5Z" stroke="#41719C" stroke-width="4.58333" stroke-miterlimit="8" fill="#C5E0B4" fill-rule="evenodd"/><rect x="814.5" y="955.5" width="106" height="87" stroke="#41719C" stroke-width="4.58333" stroke-miterlimit="8" fill="#FF0000"/><path d="M1409.5 861.5 1573.89 861.5 1573.89 932.375 1615.25 932.375 1615.25 908.75 1662.5 956 1615.25 1003.25 1615.25 979.625 1573.89 979.625 1573.89 1050.5 1409.5 1050.5Z" stroke="#41719C" stroke-width="4.58333" stroke-miterlimit="8" fill="#C5E0B4" fill-rule="evenodd"/><rect x="1413.5" y="955.5" width="106" height="87" stroke="#41719C" stroke-width="4.58333" stroke-miterlimit="8" fill="#FF0000"/><text font-family="Arial,Arial_MSFontService,sans-serif" font-weight="400" font-size="128" transform="matrix(1 0 0 1 1156.35 1044)">…</text><path d="M249.5 861.5 413.892 861.5 413.892 932.375 455.25 932.375 455.25 908.75 502.5 956 455.25 1003.25 455.25 979.625 413.892 979.625 413.892 1050.5 249.5 1050.5Z" stroke="#41719C" stroke-width="4.58333" stroke-miterlimit="8" fill="#C5E0B4" fill-rule="evenodd"/><rect x="253.5" y="955.5" width="106" height="87" stroke="#41719C" stroke-width="4.58333" stroke-miterlimit="8" fill="#FF0000"/><path d="M527.5 861.5 691.892 861.5 691.892 932.375 733.25 932.375 733.25 908.75 780.5 956 733.25 1003.25 733.25 979.625 691.892 979.625 691.892 1050.5 527.5 1050.5Z" stroke="#41719C" stroke-width="4.58333" stroke-miterlimit="8" fill="#C5E0B4" fill-rule="evenodd"/><rect x="531.5" y="955.5" width="106" height="87" stroke="#41719C" stroke-width="4.58333" stroke-miterlimit="8" fill="#FF0000"/></g></svg>