<svg width="3112" height="747" xmlns="http://www.w3.org/2000/svg" xmlns:xlink="http://www.w3.org/1999/xlink" xml:space="preserve" overflow="hidden"><g transform="translate(-742 -542)"><rect x="748.5" y="958.5" width="400" height="318" stroke="#41719C" stroke-width="4.58333" stroke-miterlimit="8" fill="#FF0000"/><rect x="749" y="567" width="401" height="715" stroke="#41719C" stroke-width="13.75" stroke-miterlimit="8" fill="none"/><rect x="1148.5" y="560.5" width="329" height="333" stroke="#41719C" stroke-width="3.4375" stroke-linejoin="round" stroke-miterlimit="10" fill="none"/><text font-family="Arial,Arial_MSFontService,sans-serif" font-weight="400" font-size="83" transform="matrix(1 0 0 1 1181.46 656)">PROP</text><text font-family="Arial,Arial_MSFontService,sans-serif" font-weight="400" font-size="83" transform="matrix(1 0 0 1 1181.46 755)">•</text><text font-family="Arial,Arial_MSFontService,sans-serif" font-weight="400" font-size="83" transform="matrix(1 0 0 1 1284.58 755)">A</text><text font-family="Arial,Arial_MSFontService,sans-serif" font-weight="400" font-size="83" transform="matrix(1 0 0 1 1181.46 854)">•</text><text font-family="Arial,Arial_MSFontService,sans-serif" font-weight="400" font-size="83" transform="matrix(1 0 0 1 1284.58 854)">B</text><rect x="3121.5" y="776.5" width="401" height="492" stroke="#41719C" stroke-width="4.58333" stroke-miterlimit="8" fill="#92D050"/><rect x="3123" y="559" width="400" height="715" stroke="#41719C" stroke-width="13.75" stroke-miterlimit="8" fill="none"/><rect x="3524.5" y="556.5" width="328" height="433" stroke="#41719C" stroke-width="3.4375" stroke-linejoin="round" stroke-miterlimit="10" fill="none"/><text font-family="Arial,Arial_MSFontService,sans-serif" font-weight="400" font-size="83" transform="matrix(1 0 0 1 3557.32 652)">PROP</text><text font-family="Arial,Arial_MSFontService,sans-serif" font-weight="400" font-size="83" transform="matrix(1 0 0 1 3557.32 751)">•</text><text font-family="Arial,Arial_MSFontService,sans-serif" font-weight="400" font-size="83" transform="matrix(1 0 0 1 3660.44 751)">X</text><text font-family="Arial,Arial_MSFontService,sans-serif" font-weight="400" font-size="83" transform="matrix(1 0 0 1 3557.32 850)">•</text><text font-family="Arial,Arial_MSFontService,sans-serif" font-weight="400" font-size="83" transform="matrix(1 0 0 1 3660.44 850)">Y</text><text font-family="Arial,Arial_MSFontService,sans-serif" font-weight="400" font-size="83" transform="matrix(1 0 0 1 3557.32 949)">•</text><text font-family="Arial,Arial_MSFontService,sans-serif" font-weight="400" font-size="83" transform="matrix(1 0 0 1 3660.44 949)">Z</text><rect x="1538.5" y="675.5" width="401" height="593" stroke="#41719C" stroke-width="4.58333" stroke-miterlimit="8" fill="#FF0000"/><rect x="1540" y="559" width="400" height="715" stroke="#41719C" stroke-width="13.75" stroke-miterlimit="8" fill="none"/><rect x="1939.5" y="552.5" width="328" height="333" stroke="#41719C" stroke-width="3.4375" stroke-linejoin="round" stroke-miterlimit="10" fill="none"/><text font-family="Arial,Arial_MSFontService,sans-serif" font-weight="400" font-size="83" transform="matrix(1 0 0 1 1971.9 648)">PROP</text><text font-family="Arial,Arial_MSFontService,sans-serif" font-weight="400" font-size="83" transform="matrix(1 0 0 1 1971.9 747)">•</text><text font-family="Arial,Arial_MSFontService,sans-serif" font-weight="400" font-size="83" transform="matrix(1 0 0 1 2075.02 747)">A</text><text font-family="Arial,Arial_MSFontService,sans-serif" font-weight="400" font-size="83" transform="matrix(1 0 0 1 1971.9 846)">•</text><text font-family="Arial,Arial_MSFontService,sans-serif" font-weight="400" font-size="83" transform="matrix(1 0 0 1 2075.02 846)">B</text><rect x="2329.5" y="1188.5" width="400" height="75.0002" stroke="#41719C" stroke-width="4.58333" stroke-miterlimit="8" fill="#92D050"/><rect x="2330" y="553" width="400" height="715" stroke="#41719C" stroke-width="13.75" stroke-miterlimit="8" fill="none"/><rect x="2732.5" y="550.5" width="328" height="434" stroke="#41719C" stroke-width="3.4375" stroke-linejoin="round" stroke-miterlimit="10" fill="none"/><text font-family="Arial,Arial_MSFontService,sans-serif" font-weight="400" font-size="83" transform="matrix(1 0 0 1 2764.66 647)">PROP</text><text font-family="Arial,Arial_MSFontService,sans-serif" font-weight="400" font-size="83" transform="matrix(1 0 0 1 2764.66 746)">•</text><text font-family="Arial,Arial_MSFontService,sans-serif" font-weight="400" font-size="83" transform="matrix(1 0 0 1 2867.79 746)">X</text><text font-family="Arial,Arial_MSFontService,sans-serif" font-weight="400" font-size="83" transform="matrix(1 0 0 1 2764.66 845)">•</text><text font-family="Arial,Arial_MSFontService,sans-serif" font-weight="400" font-size="83" transform="matrix(1 0 0 1 2867.79 845)">Y</text><text font-family="Arial,Arial_MSFontService,sans-serif" font-weight="400" font-size="83" transform="matrix(1 0 0 1 2764.66 944)">•</text><text font-family="Arial,Arial_MSFontService,sans-serif" font-weight="400" font-size="83" transform="matrix(1 0 0 1 2867.79 944)">Z</text></g></svg>