<svg width="1462" height="816" xmlns="http://www.w3.org/2000/svg" xmlns:xlink="http://www.w3.org/1999/xlink" xml:space="preserve" overflow="hidden"><g transform="translate(-265 -604)"><text font-family="Arial,Arial_MSFontService,sans-serif" font-weight="400" font-size="128" transform="matrix(1 0 0 1 1544.42 780)">)</text><rect x="267.5" y="642.5" width="205" height="168" stroke="#41719C" stroke-width="4.58333" stroke-miterlimit="8" fill="#C55A11"/><rect x="472.5" y="642.5" width="37.9998" height="24.0001" stroke="#41719C" stroke-width="4.58333" stroke-miterlimit="8" fill="#FFD966"/><rect x="472.5" y="671.5" width="37.9998" height="24.0001" stroke="#41719C" stroke-width="4.58333" stroke-miterlimit="8" fill="#FF0000"/><rect x="472.5" y="699.5" width="37.9998" height="24.0001" stroke="#41719C" stroke-width="4.58333" stroke-miterlimit="8" fill="#FFE699"/><rect x="472.5" y="727.5" width="37.9998" height="24.0001" stroke="#41719C" stroke-width="4.58333" stroke-miterlimit="8" fill="#FFE699"/><rect x="472.5" y="756.5" width="37.9998" height="24.0001" stroke="#41719C" stroke-width="4.58333" stroke-miterlimit="8" fill="#FFE699"/><rect x="472.5" y="786.5" width="37.9998" height="24.0001" stroke="#41719C" stroke-width="4.58333" stroke-miterlimit="8" fill="#FFE699"/><path d="M510.465 677.865 1029.33 724.84 1028.4 735.11 509.535 688.135ZM1025.12 714.105 1054.54 732.3 1022.34 744.916Z"/><text font-family="Arial,Arial_MSFontService,sans-serif" font-weight="400" font-size="128" transform="matrix(1 0 0 1 1087.54 780)">F(</text><rect x="1199.5" y="717.5" width="71.0001" height="52.9999" stroke="#41719C" stroke-width="4.58333" stroke-miterlimit="8" fill="#5B9BD5"/><path d="M1230.34 696.089 1237.59 696.089 1237.59 687.741 1244.41 687.741 1244.41 696.089 1251.66 696.089 1251.66 702.91 1244.41 702.91 1244.41 711.258 1237.59 711.258 1237.59 702.91 1230.34 702.91Z" stroke="#41719C" stroke-width="4.58333" stroke-miterlimit="8" fill="#F4B183" fill-rule="evenodd"/><path d="M1199.27 714.311 1250.95 665.823 1252.58 667.56 1200.9 716.048Z" stroke="#41719C" stroke-width="4.58333" stroke-miterlimit="8" fill="#5B9BD5" fill-rule="evenodd"/><rect x="1282.5" y="715.5" width="70.0001" height="53.0003" stroke="#41719C" stroke-width="4.58333" stroke-miterlimit="8" fill="#5B9BD5"/><path d="M1312.48 693.472 1319.97 693.472 1319.97 684.874 1327.03 684.874 1327.03 693.472 1334.52 693.472 1334.52 700.528 1327.03 700.528 1327.03 709.126 1319.97 709.126 1319.97 700.528 1312.48 700.528Z" stroke="#41719C" stroke-width="4.58333" stroke-miterlimit="8" fill="#F4B183" fill-rule="evenodd"/><path d="M1281.77 712.019 1333.45 663.531 1335.08 665.269 1283.4 713.756Z" stroke="#41719C" stroke-width="4.58333" stroke-miterlimit="8" fill="#5B9BD5" fill-rule="evenodd"/><rect x="1465.5" y="720.5" width="71.0001" height="51.9999" stroke="#41719C" stroke-width="4.58333" stroke-miterlimit="8" fill="#5B9BD5"/><path d="M1496.34 698.59 1503.59 698.59 1503.59 689.874 1510.41 689.874 1510.41 698.59 1517.66 698.59 1517.66 705.41 1510.41 705.41 1510.41 714.126 1503.59 714.126 1503.59 705.41 1496.34 705.41Z" stroke="#41719C" stroke-width="4.58333" stroke-miterlimit="8" fill="#F4B183" fill-rule="evenodd"/><path d="M1465.1 716.602 1516.79 668.115 1518.42 669.852 1466.73 718.34Z" stroke="#41719C" stroke-width="4.58333" stroke-miterlimit="8" fill="#5B9BD5" fill-rule="evenodd"/><text font-family="Arial,Arial_MSFontService,sans-serif" font-weight="400" font-size="128" transform="matrix(1 0 0 1 1370.73 768)">…</text><text font-family="Arial,Arial_MSFontService,sans-serif" font-weight="400" font-size="128" transform="matrix(1 0 0 1 1544.42 1047)">)</text><rect x="267.5" y="909.5" width="205" height="168" stroke="#41719C" stroke-width="4.58333" stroke-miterlimit="8" fill="#C55A11"/><rect x="472.5" y="909.5" width="37.9998" height="24.0001" stroke="#41719C" stroke-width="4.58333" stroke-miterlimit="8" fill="#FFD966"/><rect x="472.5" y="938.5" width="37.9998" height="24.0001" stroke="#41719C" stroke-width="4.58333" stroke-miterlimit="8" fill="#FFE699"/><rect x="472.5" y="966.5" width="37.9998" height="23.9997" stroke="#41719C" stroke-width="4.58333" stroke-miterlimit="8" fill="#FFE699"/><rect x="472.5" y="994.5" width="37.9998" height="24.0001" stroke="#41719C" stroke-width="4.58333" stroke-miterlimit="8" fill="#FFE699"/><rect x="472.5" y="1023.5" width="37.9998" height="24.0001" stroke="#41719C" stroke-width="4.58333" stroke-miterlimit="8" fill="#FFE699"/><rect x="472.5" y="1053.5" width="37.9998" height="24.0001" stroke="#41719C" stroke-width="4.58333" stroke-miterlimit="8" fill="#FF0000"/><path d="M0.61357-5.11961 519.558 57.0742 518.33 67.3135-0.61357 5.11961ZM515.664 46.2214 544.542 65.2616 511.983 76.939Z" transform="matrix(1 0 0 -1 510 1064.26)"/><text font-family="Arial,Arial_MSFontService,sans-serif" font-weight="400" font-size="128" transform="matrix(1 0 0 1 1087.54 1047)">F(</text><rect x="1199.5" y="984.5" width="71.0001" height="52.9999" stroke="#41719C" stroke-width="4.58333" stroke-miterlimit="8" fill="#5B9BD5"/><path d="M1230.34 962.59 1237.59 962.59 1237.59 953.874 1244.41 953.874 1244.41 962.59 1251.66 962.59 1251.66 969.41 1244.41 969.41 1244.41 978.126 1237.59 978.126 1237.59 969.41 1230.34 969.41Z" stroke="#41719C" stroke-width="4.58333" stroke-miterlimit="8" fill="#F4B183" fill-rule="evenodd"/><path d="M1199.27 981.061 1250.95 932.573 1252.58 934.31 1200.9 982.798Z" stroke="#41719C" stroke-width="4.58333" stroke-miterlimit="8" fill="#5B9BD5" fill-rule="evenodd"/><rect x="1282.5" y="982.5" width="70.0001" height="51.9999" stroke="#41719C" stroke-width="4.58333" stroke-miterlimit="8" fill="#5B9BD5"/><path d="M1312.48 960.472 1319.97 960.472 1319.97 951.874 1327.03 951.874 1327.03 960.472 1334.52 960.472 1334.52 967.528 1327.03 967.528 1327.03 976.126 1319.97 976.126 1319.97 967.528 1312.48 967.528Z" stroke="#41719C" stroke-width="4.58333" stroke-miterlimit="8" fill="#F4B183" fill-rule="evenodd"/><path d="M1281.77 978.769 1333.45 930.281 1335.08 932.019 1283.4 980.506Z" stroke="#41719C" stroke-width="4.58333" stroke-miterlimit="8" fill="#5B9BD5" fill-rule="evenodd"/><rect x="1465.5" y="986.5" width="71.0001" height="52.9999" stroke="#41719C" stroke-width="4.58333" stroke-miterlimit="8" fill="#5B9BD5"/><path d="M1496.34 965.09 1503.59 965.09 1503.59 956.742 1510.41 956.742 1510.41 965.09 1517.66 965.09 1517.66 971.91 1510.41 971.91 1510.41 980.258 1503.59 980.258 1503.59 971.91 1496.34 971.91Z" stroke="#41719C" stroke-width="4.58333" stroke-miterlimit="8" fill="#F4B183" fill-rule="evenodd"/><path d="M1465.1 983.352 1516.79 934.865 1518.42 936.602 1466.73 985.09Z" stroke="#41719C" stroke-width="4.58333" stroke-miterlimit="8" fill="#5B9BD5" fill-rule="evenodd"/><text font-family="Arial,Arial_MSFontService,sans-serif" font-weight="400" font-size="128" transform="matrix(1 0 0 1 1370.73 1035)">…</text><text font-family="Arial,Arial_MSFontService,sans-serif" font-weight="400" font-size="128" transform="matrix(1 0 0 1 1544.42 1313)">)</text><rect x="267.5" y="1175.5" width="205" height="168" stroke="#41719C" stroke-width="4.58333" stroke-miterlimit="8" fill="#C55A11"/><rect x="472.5" y="1175.5" width="37.9998" height="23.9998" stroke="#41719C" stroke-width="4.58333" stroke-miterlimit="8" fill="#FFD966"/><rect x="472.5" y="1205.5" width="37.9998" height="24.0001" stroke="#41719C" stroke-width="4.58333" stroke-miterlimit="8" fill="#FFE699"/><rect x="472.5" y="1233.5" width="37.9998" height="24.0001" stroke="#41719C" stroke-width="4.58333" stroke-miterlimit="8" fill="#FFE699"/><rect x="472.5" y="1261.5" width="37.9998" height="24.0001" stroke="#41719C" stroke-width="4.58333" stroke-miterlimit="8" fill="#FF0000"/><rect x="472.5" y="1290.5" width="37.9998" height="24.0001" stroke="#41719C" stroke-width="4.58333" stroke-miterlimit="8" fill="#FFE699"/><rect x="472.5" y="1319.5" width="37.9998" height="23.9998" stroke="#41719C" stroke-width="4.58333" stroke-miterlimit="8" fill="#FFE699"/><path d="M0.0635908-5.15586 518.826 1.2424 518.699 11.5541-0.0635908 5.15586ZM513.797-9.13291 544.542 6.71621 513.416 21.8022Z" transform="matrix(1 0 0 -1 510 1272.72)"/><text font-family="Arial,Arial_MSFontService,sans-serif" font-weight="400" font-size="128" transform="matrix(1 0 0 1 1087.54 1313)">F(</text><rect x="1199.5" y="1251.5" width="71.0001" height="51.9999" stroke="#41719C" stroke-width="4.58333" stroke-miterlimit="8" fill="#5B9BD5"/><path d="M1230.34 1229.59 1237.59 1229.59 1237.59 1220.87 1244.41 1220.87 1244.41 1229.59 1251.66 1229.59 1251.66 1236.41 1244.41 1236.41 1244.41 1245.13 1237.59 1245.13 1237.59 1236.41 1230.34 1236.41Z" stroke="#41719C" stroke-width="4.58333" stroke-miterlimit="8" fill="#F4B183" fill-rule="evenodd"/><path d="M1199.27 1247.81 1250.95 1199.32 1252.58 1201.06 1200.9 1249.55Z" stroke="#41719C" stroke-width="4.58333" stroke-miterlimit="8" fill="#5B9BD5" fill-rule="evenodd"/><rect x="1282.5" y="1249.5" width="70.0001" height="51.9999" stroke="#41719C" stroke-width="4.58333" stroke-miterlimit="8" fill="#5B9BD5"/><path d="M1312.48 1227.47 1319.97 1227.47 1319.97 1218.87 1327.03 1218.87 1327.03 1227.47 1334.52 1227.47 1334.52 1234.53 1327.03 1234.53 1327.03 1243.13 1319.97 1243.13 1319.97 1234.53 1312.48 1234.53Z" stroke="#41719C" stroke-width="4.58333" stroke-miterlimit="8" fill="#F4B183" fill-rule="evenodd"/><path d="M1281.77 1245.52 1333.45 1197.03 1335.08 1198.77 1283.4 1247.26Z" stroke="#41719C" stroke-width="4.58333" stroke-miterlimit="8" fill="#5B9BD5" fill-rule="evenodd"/><rect x="1465.5" y="1253.5" width="71.0001" height="52.9999" stroke="#41719C" stroke-width="4.58333" stroke-miterlimit="8" fill="#5B9BD5"/><path d="M1496.34 1231.59 1503.59 1231.59 1503.59 1222.87 1510.41 1222.87 1510.41 1231.59 1517.66 1231.59 1517.66 1238.41 1510.41 1238.41 1510.41 1247.13 1503.59 1247.13 1503.59 1238.41 1496.34 1238.41Z" stroke="#41719C" stroke-width="4.58333" stroke-miterlimit="8" fill="#F4B183" fill-rule="evenodd"/><path d="M1465.1 1250.1 1516.79 1201.61 1518.42 1203.35 1466.73 1251.84Z" stroke="#41719C" stroke-width="4.58333" stroke-miterlimit="8" fill="#5B9BD5" fill-rule="evenodd"/><text font-family="Arial,Arial_MSFontService,sans-serif" font-weight="400" font-size="128" transform="matrix(1 0 0 1 1370.73 1302)">…</text></g></svg>