<svg width="754" height="443" xmlns="http://www.w3.org/2000/svg" xmlns:xlink="http://www.w3.org/1999/xlink" xml:space="preserve" overflow="hidden"><g transform="translate(-312 -1441)"><rect x="314.5" y="1446.5" width="203" height="105" stroke="#ED7D31" stroke-width="4.58333" stroke-miterlimit="8" fill="#FFFFFF"/><text font-family="Calibri,Calibri_MSFontService,sans-serif" font-weight="400" font-size="50" transform="matrix(1 0 0 1 346.786 1511)">family</text><rect x="315.5" y="1773.5" width="240" height="105" stroke="#ED7D31" stroke-width="4.58333" stroke-miterlimit="8" fill="#FFFFFF"/><text font-family="Calibri,Calibri_MSFontService,sans-serif" font-weight="400" font-size="50" transform="matrix(1 0 0 1 347.74 1839)">vaccine</text><rect x="815.5" y="1443.5" width="248" height="105" stroke="#ED7D31" stroke-width="4.58333" stroke-miterlimit="8" fill="#FFFFFF"/><text font-family="Calibri,Calibri_MSFontService,sans-serif" font-weight="400" font-size="50" transform="matrix(1 0 0 1 848.462 1509)">people</text><path d="M3.42818-0.253015 18.0123 197.351 11.1559 197.857-3.42818 0.253015ZM27.9594 192.021 16.2708 220.458 0.534011 194.045Z" transform="matrix(1 0 0 -1 417.5 1771.96)"/><path d="M2.04255-2.76485 355.547 258.389 351.462 263.918-2.04255 2.76485ZM357.989 247.371 371.938 274.771 341.648 269.49Z" transform="matrix(1 0 0 -1 553.5 1826.27)"/><path d="M517.688 1489.07 792.263 1504.09 791.888 1510.95 517.312 1495.93ZM788.25 1493.54 814.958 1508.77 786.748 1521Z"/></g></svg>