<svg width="1368" height="721" xmlns="http://www.w3.org/2000/svg" xmlns:xlink="http://www.w3.org/1999/xlink" xml:space="preserve" overflow="hidden"><g transform="translate(-285 -1474)"><rect x="308.5" y="2057.5" width="184" height="135" stroke="#41719C" stroke-width="4.58333" stroke-miterlimit="8" fill="#5B9BD5"/><path d="M387.706 2000.44 406.945 2000.44 406.945 1978.63 425.055 1978.63 425.055 2000.44 444.294 2000.44 444.294 2018.56 425.055 2018.56 425.055 2040.37 406.945 2040.37 406.945 2018.56 387.706 2018.56Z" stroke="#41719C" stroke-width="4.58333" stroke-miterlimit="8" fill="#F4B183" fill-rule="evenodd"/><path d="M307.471 2049.72 442.625 1922.93 446.828 1927.41 311.674 2054.2Z" stroke="#41719C" stroke-width="4.58333" stroke-miterlimit="8" fill="#5B9BD5" fill-rule="evenodd"/><rect x="287.5" y="1476.5" width="185" height="135" stroke="#41719C" stroke-width="4.58333" stroke-miterlimit="8" fill="#5B9BD5"/><path d="M5.15585-0.0639378 9.49059 349.483-0.821114 349.611-5.15585 0.0639378ZM19.7384 344.2 4.65443 375.327-11.1968 344.583Z" transform="matrix(-1 0 0 1 379.654 1611)"/><rect x="586.5" y="2057.5" width="185" height="135" stroke="#41719C" stroke-width="4.58333" stroke-miterlimit="8" fill="#5B9BD5"/><path d="M665.706 2000.44 684.945 2000.44 684.945 1978.63 703.055 1978.63 703.055 2000.44 722.294 2000.44 722.294 2018.56 703.055 2018.56 703.055 2040.37 684.945 2040.37 684.945 2018.56 665.706 2018.56Z" stroke="#41719C" stroke-width="4.58333" stroke-miterlimit="8" fill="#F4B183" fill-rule="evenodd"/><path d="M585.78 2049.72 720.934 1922.93 725.137 1927.41 589.984 2054.2Z" stroke="#41719C" stroke-width="4.58333" stroke-miterlimit="8" fill="#5B9BD5" fill-rule="evenodd"/><rect x="566.5" y="1476.5" width="184" height="135" stroke="#41719C" stroke-width="4.58333" stroke-miterlimit="8" fill="#5B9BD5"/><path d="M5.15585-0.0639378 9.49059 349.483-0.821114 349.611-5.15585 0.0639378ZM19.7384 344.2 4.65443 375.327-11.1968 344.583Z" transform="matrix(-1 0 0 1 657.655 1611)"/><rect x="863.5" y="2057.5" width="185" height="135" stroke="#41719C" stroke-width="4.58333" stroke-miterlimit="8" fill="#5B9BD5"/><path d="M943.707 2000.44 962.945 2000.44 962.945 1978.63 981.055 1978.63 981.055 2000.44 1000.29 2000.44 1000.29 2018.56 981.055 2018.56 981.055 2040.37 962.945 2040.37 962.945 2018.56 943.707 2018.56Z" stroke="#41719C" stroke-width="4.58333" stroke-miterlimit="8" fill="#F4B183" fill-rule="evenodd"/><path d="M863.257 2049.72 998.411 1922.93 1002.61 1927.41 867.461 2054.2Z" stroke="#41719C" stroke-width="4.58333" stroke-miterlimit="8" fill="#5B9BD5" fill-rule="evenodd"/><rect x="843.5" y="1476.5" width="185" height="135" stroke="#41719C" stroke-width="4.58333" stroke-miterlimit="8" fill="#5B9BD5"/><path d="M5.15585-0.0639378 9.49059 349.483-0.821114 349.611-5.15585 0.0639378ZM19.7384 344.2 4.65443 375.327-11.1968 344.583Z" transform="matrix(-1 0 0 1 935.654 1611)"/><rect x="1465.5" y="2057.5" width="185" height="135" stroke="#41719C" stroke-width="4.58333" stroke-miterlimit="8" fill="#5B9BD5"/><path d="M1545.71 2000.44 1564.94 2000.44 1564.94 1978.63 1583.06 1978.63 1583.06 2000.44 1602.29 2000.44 1602.29 2018.56 1583.06 2018.56 1583.06 2040.37 1564.94 2040.37 1564.94 2018.56 1545.71 2018.56Z" stroke="#41719C" stroke-width="4.58333" stroke-miterlimit="8" fill="#F4B183" fill-rule="evenodd"/><path d="M1465.22 2049.72 1600.37 1922.93 1604.58 1927.41 1469.42 2054.2Z" stroke="#41719C" stroke-width="4.58333" stroke-miterlimit="8" fill="#5B9BD5" fill-rule="evenodd"/><rect x="1445.5" y="1476.5" width="185" height="135" stroke="#41719C" stroke-width="4.58333" stroke-miterlimit="8" fill="#5B9BD5"/><path d="M5.15585-0.0639378 9.49059 349.483-0.821114 349.611-5.15585 0.0639378ZM19.7384 344.2 4.65443 375.327-11.1968 344.583Z" transform="matrix(-1 0 0 1 1537.65 1611)"/><text font-family="Calibri,Calibri_MSFontService,sans-serif" font-weight="400" font-size="128" transform="matrix(1 0 0 1 1206.81 1867)">…</text></g></svg>