<svg width="928" height="173" xmlns="http://www.w3.org/2000/svg" xmlns:xlink="http://www.w3.org/1999/xlink" xml:space="preserve" overflow="hidden"><g transform="translate(-236 -280)"><rect x="238.5" y="282.5" width="205" height="168" stroke="#41719C" stroke-width="4.58333" stroke-miterlimit="8" fill="#C55A11"/><rect x="443.5" y="282.5" width="38.0002" height="24.0001" stroke="#41719C" stroke-width="4.58333" stroke-miterlimit="8" fill="#FFD966"/><rect x="443.5" y="311.5" width="38.0002" height="24.0001" stroke="#41719C" stroke-width="4.58333" stroke-miterlimit="8" fill="#FFD966"/><rect x="443.5" y="339.5" width="38.0002" height="23.9997" stroke="#41719C" stroke-width="4.58333" stroke-miterlimit="8" fill="#FFE699"/><rect x="443.5" y="367.5" width="38.0002" height="24.0001" stroke="#41719C" stroke-width="4.58333" stroke-miterlimit="8" fill="#FFE699"/><rect x="443.5" y="396.5" width="38.0002" height="24.0001" stroke="#41719C" stroke-width="4.58333" stroke-miterlimit="8" fill="#FFE699"/><rect x="443.5" y="426.5" width="38.0002" height="24.0001" stroke="#41719C" stroke-width="4.58333" stroke-miterlimit="8" fill="#FFE699"/><rect x="583.5" y="282.5" width="204" height="168" stroke="#41719C" stroke-width="4.58333" stroke-miterlimit="8" fill="#C55A11"/><rect x="787.5" y="282.5" width="38.9998" height="24.0001" stroke="#41719C" stroke-width="4.58333" stroke-miterlimit="8" fill="#FFD966"/><rect x="787.5" y="311.5" width="38.9998" height="24.0001" stroke="#41719C" stroke-width="4.58333" stroke-miterlimit="8" fill="#FFD966"/><rect x="787.5" y="339.5" width="38.9998" height="23.9997" stroke="#41719C" stroke-width="4.58333" stroke-miterlimit="8" fill="#FFE699"/><rect x="787.5" y="367.5" width="38.9998" height="24.0001" stroke="#41719C" stroke-width="4.58333" stroke-miterlimit="8" fill="#FFE699"/><rect x="787.5" y="396.5" width="38.9998" height="24.0001" stroke="#41719C" stroke-width="4.58333" stroke-miterlimit="8" fill="#FFE699"/><rect x="787.5" y="426.5" width="38.9998" height="24.0001" stroke="#41719C" stroke-width="4.58333" stroke-miterlimit="8" fill="#FFE699"/><rect x="918.5" y="282.5" width="204" height="168" stroke="#41719C" stroke-width="4.58333" stroke-miterlimit="8" fill="#C55A11"/><rect x="1122.5" y="282.5" width="39.0002" height="24.0001" stroke="#41719C" stroke-width="4.58333" stroke-miterlimit="8" fill="#FFD966"/><rect x="1122.5" y="311.5" width="39.0002" height="24.0001" stroke="#41719C" stroke-width="4.58333" stroke-miterlimit="8" fill="#FFD966"/><rect x="1122.5" y="339.5" width="39.0002" height="23.9997" stroke="#41719C" stroke-width="4.58333" stroke-miterlimit="8" fill="#FFE699"/><rect x="1122.5" y="367.5" width="39.0002" height="24.0001" stroke="#41719C" stroke-width="4.58333" stroke-miterlimit="8" fill="#FFE699"/><rect x="1122.5" y="396.5" width="39.0002" height="24.0001" stroke="#41719C" stroke-width="4.58333" stroke-miterlimit="8" fill="#FFE699"/><rect x="1122.5" y="426.5" width="39.0002" height="24.0001" stroke="#41719C" stroke-width="4.58333" stroke-miterlimit="8" fill="#FFE699"/></g></svg>