<svg width="1462" height="388" xmlns="http://www.w3.org/2000/svg" xmlns:xlink="http://www.w3.org/1999/xlink" xml:space="preserve" overflow="hidden"><g transform="translate(-2059 -586)"><text font-family="Arial,Arial_MSFontService,sans-serif" font-weight="400" font-size="128" transform="matrix(1 0 0 1 3338.42 762)">)</text><path d="M2061.5 641.5 2391.5 641.5 2391.5 971.5 2061.5 971.5Z" stroke="#41719C" stroke-width="4.58333" stroke-miterlimit="8" fill="#C55A11" fill-rule="evenodd"/><rect x="2391.5" y="641.5" width="61.9998" height="47.0001" stroke="#41719C" stroke-width="4.58333" stroke-miterlimit="8" fill="#FFD966"/><rect x="2391.5" y="697.5" width="61.9998" height="47.0001" stroke="#41719C" stroke-width="4.58333" stroke-miterlimit="8" fill="#FF0000"/><rect x="2391.5" y="754.5" width="61.9998" height="47.0001" stroke="#41719C" stroke-width="4.58333" stroke-miterlimit="8" fill="#FFE699"/><rect x="2391.5" y="809.5" width="61.9998" height="47.0001" stroke="#41719C" stroke-width="4.58333" stroke-miterlimit="8" fill="#FFE699"/><rect x="2391.5" y="866.5" width="61.9998" height="46.9998" stroke="#41719C" stroke-width="4.58333" stroke-miterlimit="8" fill="#FFE699"/><rect x="2391.5" y="924.5" width="61.9998" height="47.0001" stroke="#41719C" stroke-width="4.58333" stroke-miterlimit="8" fill="#FFE699"/><path d="M5.11985e-06-5.15625 337.677-5.15591 337.677 5.15659-5.11985e-06 5.15625ZM332.521-15.4684 363.458 0.000360892 332.521 15.4691Z" transform="matrix(1 0 0 -1 2453 721)"/><text font-family="Arial,Arial_MSFontService,sans-serif" font-weight="400" font-size="128" transform="matrix(1 0 0 1 2881.54 762)">F(</text><rect x="2993.5" y="699.5" width="71.0002" height="52.9999" stroke="#41719C" stroke-width="4.58333" stroke-miterlimit="8" fill="#5B9BD5"/><path d="M3024.34 678.09 3031.59 678.09 3031.59 669.742 3038.41 669.742 3038.41 678.09 3045.66 678.09 3045.66 684.91 3038.41 684.91 3038.41 693.258 3031.59 693.258 3031.59 684.91 3024.34 684.91Z" stroke="#41719C" stroke-width="4.58333" stroke-miterlimit="8" fill="#F4B183" fill-rule="evenodd"/><path d="M2993.27 696.311 3044.96 647.823 3046.58 649.56 2994.9 698.048Z" stroke="#41719C" stroke-width="4.58333" stroke-miterlimit="8" fill="#5B9BD5" fill-rule="evenodd"/><rect x="3076.5" y="697.5" width="69.9998" height="52.9999" stroke="#41719C" stroke-width="4.58333" stroke-miterlimit="8" fill="#5B9BD5"/><path d="M3106.48 675.472 3113.97 675.472 3113.97 666.874 3121.03 666.874 3121.03 675.472 3128.52 675.472 3128.52 682.528 3121.03 682.528 3121.03 691.126 3113.97 691.126 3113.97 682.528 3106.48 682.528Z" stroke="#41719C" stroke-width="4.58333" stroke-miterlimit="8" fill="#F4B183" fill-rule="evenodd"/><path d="M3075.77 694.019 3127.46 645.531 3129.08 647.268 3077.4 695.756Z" stroke="#41719C" stroke-width="4.58333" stroke-miterlimit="8" fill="#5B9BD5" fill-rule="evenodd"/><rect x="3259.5" y="702.5" width="71.0002" height="51.9999" stroke="#41719C" stroke-width="4.58333" stroke-miterlimit="8" fill="#5B9BD5"/><path d="M3290.34 680.59 3297.59 680.59 3297.59 671.874 3304.41 671.874 3304.41 680.59 3311.66 680.59 3311.66 687.41 3304.41 687.41 3304.41 696.126 3297.59 696.126 3297.59 687.41 3290.34 687.41Z" stroke="#41719C" stroke-width="4.58333" stroke-miterlimit="8" fill="#F4B183" fill-rule="evenodd"/><path d="M3259.1 698.602 3310.79 650.114 3312.42 651.852 3260.73 700.34Z" stroke="#41719C" stroke-width="4.58333" stroke-miterlimit="8" fill="#5B9BD5" fill-rule="evenodd"/><text font-family="Arial,Arial_MSFontService,sans-serif" font-weight="400" font-size="128" transform="matrix(1 0 0 1 3164.73 750)">…</text></g></svg>