<svg width="1173" height="391" xmlns="http://www.w3.org/2000/svg" xmlns:xlink="http://www.w3.org/1999/xlink" xml:space="preserve" overflow="hidden"><g transform="translate(-773 -1658)"><rect x="777.5" y="1796.5" width="185" height="135" stroke="#41719C" stroke-width="4.58333" stroke-miterlimit="8" fill="#FF0000"/><path d="M857.574 1739.56 876.562 1739.56 876.562 1717.63 894.438 1717.63 894.438 1739.56 913.426 1739.56 913.426 1757.44 894.438 1757.44 894.438 1779.37 876.562 1779.37 876.562 1757.44 857.574 1757.44Z" stroke="#41719C" stroke-width="4.58333" stroke-miterlimit="8" fill="#F4B183" fill-rule="evenodd"/><path d="M777.082 1788.47 912.235 1661.68 916.439 1666.16 781.285 1792.95Z" stroke="#41719C" stroke-width="4.58333" stroke-miterlimit="8" fill="#FF0000" fill-rule="evenodd"/><rect x="1054.5" y="1800.5" width="185" height="135" stroke="#41719C" stroke-width="4.58333" stroke-miterlimit="8" fill="#FF0000"/><path d="M1134.57 1743.56 1153.56 1743.56 1153.56 1721.63 1171.44 1721.63 1171.44 1743.56 1190.43 1743.56 1190.43 1761.44 1171.44 1761.44 1171.44 1783.37 1153.56 1783.37 1153.56 1761.44 1134.57 1761.44Z" stroke="#41719C" stroke-width="4.58333" stroke-miterlimit="8" fill="#F4B183" fill-rule="evenodd"/><path d="M1054.08 1792.47 1189.23 1665.68 1193.44 1670.16 1058.28 1796.95Z" stroke="#41719C" stroke-width="4.58333" stroke-miterlimit="8" fill="#FF0000" fill-rule="evenodd"/><rect x="1307.5" y="1804.5" width="185" height="135" stroke="#41719C" stroke-width="4.58333" stroke-miterlimit="8" fill="#FF0000"/><path d="M1387.57 1747.56 1406.56 1747.56 1406.56 1725.63 1424.44 1725.63 1424.44 1747.56 1443.43 1747.56 1443.43 1765.44 1424.44 1765.44 1424.44 1787.37 1406.56 1787.37 1406.56 1765.44 1387.57 1765.44Z" stroke="#41719C" stroke-width="4.58333" stroke-miterlimit="8" fill="#F4B183" fill-rule="evenodd"/><path d="M1307.08 1796.47 1442.24 1669.68 1446.44 1674.16 1311.29 1800.95Z" stroke="#41719C" stroke-width="4.58333" stroke-miterlimit="8" fill="#FF0000" fill-rule="evenodd"/><rect x="1758.5" y="1808.5" width="185" height="135" stroke="#41719C" stroke-width="4.58333" stroke-miterlimit="8" fill="#FF0000"/><path d="M1838.57 1751.56 1857.56 1751.56 1857.56 1729.63 1875.44 1729.63 1875.44 1751.56 1894.43 1751.56 1894.43 1769.44 1875.44 1769.44 1875.44 1791.37 1857.56 1791.37 1857.56 1769.44 1838.57 1769.44Z" stroke="#41719C" stroke-width="4.58333" stroke-miterlimit="8" fill="#F4B183" fill-rule="evenodd"/><path d="M1758.08 1800.47 1893.24 1673.68 1897.44 1678.16 1762.29 1804.95Z" stroke="#41719C" stroke-width="4.58333" stroke-miterlimit="8" fill="#FF0000" fill-rule="evenodd"/><text font-family="Calibri,Calibri_MSFontService,sans-serif" font-weight="400" font-size="128" transform="matrix(1 0 0 1 1572.74 1937)">…</text></g></svg>