<svg width="3038" height="1190" xmlns="http://www.w3.org/2000/svg" xmlns:xlink="http://www.w3.org/1999/xlink" xml:space="preserve" overflow="hidden"><g transform="translate(-379 -539)"><path d="M816.5 864.5C816.5 773.373 993.795 699.5 1212.5 699.5 1431.2 699.5 1608.5 773.373 1608.5 864.5 1608.5 955.627 1431.2 1029.5 1212.5 1029.5 993.795 1029.5 816.5 955.627 816.5 864.5Z" stroke="#41719C" stroke-width="4.58333" stroke-miterlimit="8" fill="#5B9BD5" fill-rule="evenodd"/><path d="M871.5 919.5C871.5 828.373 1048.8 754.5 1267.5 754.5 1486.2 754.5 1663.5 828.373 1663.5 919.5 1663.5 1010.63 1486.2 1084.5 1267.5 1084.5 1048.8 1084.5 871.5 1010.63 871.5 919.5Z" stroke="#41719C" stroke-width="4.58333" stroke-miterlimit="8" fill="#5B9BD5" fill-rule="evenodd"/><path d="M926.5 974.5C926.5 883.373 1103.8 809.5 1322.5 809.5 1541.2 809.5 1718.5 883.373 1718.5 974.5 1718.5 1065.63 1541.2 1139.5 1322.5 1139.5 1103.8 1139.5 926.5 1065.63 926.5 974.5Z" stroke="#41719C" stroke-width="4.58333" stroke-miterlimit="8" fill="#5B9BD5" fill-rule="evenodd"/><text fill="#FFFFFF" font-family="Calibri,Calibri_MSFontService,sans-serif" font-weight="400" font-size="83" transform="matrix(1 0 0 1 1190.52 1002)">Regions</text><path d="M2163.5 884.5C2163.5 793.373 2340.8 719.5 2559.5 719.5 2778.2 719.5 2955.5 793.373 2955.5 884.5 2955.5 975.627 2778.2 1049.5 2559.5 1049.5 2340.8 1049.5 2163.5 975.627 2163.5 884.5Z" stroke="#41719C" stroke-width="4.58333" stroke-miterlimit="8" fill="#A9D18E" fill-rule="evenodd"/><path d="M2218.5 939.5C2218.5 848.373 2395.8 774.5 2614.5 774.5 2833.2 774.5 3010.5 848.373 3010.5 939.5 3010.5 1030.63 2833.2 1104.5 2614.5 1104.5 2395.8 1104.5 2218.5 1030.63 2218.5 939.5Z" stroke="#41719C" stroke-width="4.58333" stroke-miterlimit="8" fill="#A9D18E" fill-rule="evenodd"/><path d="M2273.5 994.5C2273.5 903.373 2450.8 829.5 2669.5 829.5 2888.2 829.5 3065.5 903.373 3065.5 994.5 3065.5 1085.63 2888.2 1159.5 2669.5 1159.5 2450.8 1159.5 2273.5 1085.63 2273.5 994.5Z" stroke="#41719C" stroke-width="4.58333" stroke-miterlimit="8" fill="#A9D18E" fill-rule="evenodd"/><text font-family="Calibri,Calibri_MSFontService,sans-serif" font-weight="400" font-size="83" transform="matrix(1 0 0 1 2553.56 1022)">People</text><path d="M0 5.15625-130.828 5.15625-125.672 0-125.672 786.972-130.828 781.815-26.8939 781.815-26.8939 792.128-135.984 792.128-135.984-5.15625 0-5.15625ZM-32.0501 761.19 19.5124 786.972-32.0501 812.753Z" transform="matrix(1.83697e-16 1 1 -1.83697e-16 1492 748)"/><path d="M0 5.15625-130.828 5.15625-125.672 0-125.672 786.972-130.828 781.815-26.8939 781.815-26.8939 792.128-135.984 792.128-135.984-5.15625 0-5.15625ZM-32.0501 761.19 19.5124 786.972-32.0501 812.753Z" transform="matrix(-6.12323e-17 -1 -1 6.12323e-17 2388.97 1110.51)"/><path d="M491.814 647.68 779.543 835.091 773.915 843.732 486.186 656.321ZM786.479 814.994 815.614 864.739 758.338 858.2Z"/><path d="M2.80471-4.32672 384.002 242.777 378.393 251.43-2.80471 4.32672ZM390.894 222.665 420.138 272.346 362.847 265.932Z" transform="matrix(-1 0 0 1 926.138 974)"/><path d="M2950.91 1106.21 3249.11 1225.18 3245.29 1234.76 2947.09 1115.79ZM3251.97 1204.11 3290.3 1247.16 3232.86 1252Z"/><path d="M0.0452674 5.15605-23.0714 5.359-22.9826 5.35746-46.0541 5.95777-45.9674 5.95479-68.9486 6.93964-68.8637 6.9353-91.7094 8.29187-91.5848 8.28296-136.689 12.06-136.525 12.0436-180.545 17.1537-180.421 17.1378-201.912 20.1608-201.829 20.1484-222.913 23.4661-222.828 23.452-243.461 27.0518-243.374 27.0359-263.51 30.9048-263.421 30.8868-283.015 35.0121-282.922 34.9916-301.929 39.3605-301.832 39.3372-320.206 43.9367-320.104 43.91-337.801 48.7274-337.692 48.6966-354.666 53.7191-354.55 53.6832-370.757 58.898-370.631 58.8557-386.024 64.25-385.887 64.1997-400.422 69.7606-400.271 69.7-413.904 75.4147-413.736 75.3409-426.419 81.1966-426.231 81.105-437.921 87.0889-437.708 86.9736-448.36 93.0728-448.117 92.925-457.685 99.1268-457.407 98.9338-465.845 105.225-465.528 104.969-472.792 111.337-472.434 110.991-478.478 117.423-478.086 116.952-482.866 123.436-482.464 122.798-485.934 129.32-485.579 128.484-487.695 135.031-487.475 134.005-488.191 140.566-488.169 139.698-487.972 142.979-488.044 142.379-487.456 145.658-487.588 145.101-486.616 148.377-486.793 147.877-485.443 151.148-485.757 150.515-481.947 157.037-482.391 156.394-477.143 162.878-477.562 162.419-470.925 168.852-471.297 168.525-463.321 174.893-463.642 174.657-454.377 180.949-454.652 180.774-444.148 186.976-444.385 186.844-432.69 192.943-432.895 192.842-420.06 198.826-420.24 198.746-406.314 204.602-406.474 204.538-391.506 210.252-391.648 210.2-375.689 215.761-375.818 215.718-358.916 221.113-359.034 221.077-341.24 226.291-341.348 226.261-322.711 231.283-322.812 231.257-303.381 236.075-303.476 236.052-283.302 240.652-283.391 240.632-262.522 245.001-262.608 244.984-241.095 249.109-241.177 249.094-219.068 252.963-219.148 252.95-196.494 256.549-196.572 256.538-173.422 259.855-173.498 259.845-149.902 262.868-149.978 262.859-125.985 265.574-126.06 265.566-101.72 267.961-101.833 267.951-52.3096 271.728-52.4233 271.721-27.3395 273.077-27.4373 273.073 2.10794 274.109 1.7467 284.415-27.8475 283.377-53.0371 282.015-102.673 278.229-127.107 275.825-151.175 273.102-174.847 270.069-198.074 266.74-220.806 263.128-242.996 259.245-264.593 255.104-285.549 250.716-305.816 246.096-325.344 241.254-344.086 236.203-361.993 230.956-379.018 225.522-395.113 219.914-410.232 214.141-424.328 208.214-437.357 202.14-449.274 195.925-460.035 189.571-469.6 183.076-477.925 176.429-484.963 169.608-490.653 162.577-494.84 155.411-496.427 151.566-497.556 147.76-498.248 143.9-498.49 139.882-497.67 132.363-495.252 124.879-491.391 117.621-486.204 110.586-479.778 103.747-472.173 97.0799-463.436 90.5653-453.608 84.1943-442.728 77.9643-430.837 71.8776-417.975 65.9396-404.183 60.158-389.504 54.5419-373.978 49.1015-357.651 43.8477-340.564 38.7919-322.761 33.9457-304.287 29.3212-285.186 24.9306-265.501 20.7861-245.277 16.9003-224.559 13.2856-203.39 9.95466-181.796 6.9172-137.632 1.79036-92.3831-1.99879-69.4326-3.36159-46.3656-4.35011-23.2064-4.95271-0.0452674-5.15605ZM-2.81018 253.4 48.3275 280.014-3.64634 304.956Z" transform="matrix(-6.12323e-17 -1 -1 6.12323e-17 1322.01 1139.33)"/><path d="M393.5 614.5C393.5 584.677 418.796 560.5 450 560.5 481.204 560.5 506.5 584.677 506.5 614.5 506.5 644.323 481.204 668.5 450 668.5 418.796 668.5 393.5 644.323 393.5 614.5Z" stroke="#41719C" stroke-width="4.58333" stroke-miterlimit="8" fill="#C55A11" fill-rule="evenodd"/><text fill="#FFFFFF" font-family="Calibri,Calibri_MSFontService,sans-serif" font-weight="400" font-size="83" transform="matrix(1 0 0 1 428.697 641)">1</text><path d="M1915.5 1247.5C1915.5 1217.68 1940.57 1193.5 1971.5 1193.5 2002.43 1193.5 2027.5 1217.68 2027.5 1247.5 2027.5 1277.32 2002.43 1301.5 1971.5 1301.5 1940.57 1301.5 1915.5 1277.32 1915.5 1247.5Z" stroke="#41719C" stroke-width="4.58333" stroke-miterlimit="8" fill="#C55A11" fill-rule="evenodd"/><text fill="#FFFFFF" font-family="Calibri,Calibri_MSFontService,sans-serif" font-weight="400" font-size="83" transform="matrix(1 0 0 1 1950.18 1274)">5</text><path d="M1829.5 614.5C1829.5 584.677 1854.8 560.5 1886 560.5 1917.2 560.5 1942.5 584.677 1942.5 614.5 1942.5 644.323 1917.2 668.5 1886 668.5 1854.8 668.5 1829.5 644.323 1829.5 614.5Z" stroke="#41719C" stroke-width="4.58333" stroke-miterlimit="8" fill="#C55A11" fill-rule="evenodd"/><text fill="#FFFFFF" font-family="Calibri,Calibri_MSFontService,sans-serif" font-weight="400" font-size="83" transform="matrix(1 0 0 1 1864.59 641)">4</text><path d="M1126.5 1630.5C1126.5 1600.68 1151.57 1576.5 1182.5 1576.5 1213.43 1576.5 1238.5 1600.68 1238.5 1630.5 1238.5 1660.32 1213.43 1684.5 1182.5 1684.5 1151.57 1684.5 1126.5 1660.32 1126.5 1630.5Z" stroke="#41719C" stroke-width="4.58333" stroke-miterlimit="8" fill="#C55A11" fill-rule="evenodd"/><text fill="#FFFFFF" font-family="Calibri,Calibri_MSFontService,sans-serif" font-weight="400" font-size="83" transform="matrix(1 0 0 1 1161.08 1657)">3</text><path d="M3290.5 1247.5C3290.5 1217.68 3315.8 1193.5 3347 1193.5 3378.2 1193.5 3403.5 1217.68 3403.5 1247.5 3403.5 1277.32 3378.2 1301.5 3347 1301.5 3315.8 1301.5 3290.5 1277.32 3290.5 1247.5Z" stroke="#41719C" stroke-width="4.58333" stroke-miterlimit="8" fill="#C55A11" fill-rule="evenodd"/><text fill="#FFFFFF" font-family="Calibri,Calibri_MSFontService,sans-serif" font-weight="400" font-size="83" transform="matrix(1 0 0 1 3325.66 1274)">6</text><path d="M393.5 1247.5C393.5 1217.68 418.796 1193.5 450 1193.5 481.204 1193.5 506.5 1217.68 506.5 1247.5 506.5 1277.32 481.204 1301.5 450 1301.5 418.796 1301.5 393.5 1277.32 393.5 1247.5Z" stroke="#41719C" stroke-width="4.58333" stroke-miterlimit="8" fill="#C55A11" fill-rule="evenodd"/><text fill="#FFFFFF" font-family="Calibri,Calibri_MSFontService,sans-serif" font-weight="400" font-size="83" transform="matrix(1 0 0 1 428.697 1274)">2</text></g></svg>